<?xml version="1.0" encoding="UTF-8" standalone="no"?><svg xmlns="http://www.w3.org/2000/svg" xmlns:xlink="http://www.w3.org/1999/xlink" contentScriptType="application/ecmascript" contentStyleType="text/css" height="401px" preserveAspectRatio="none" style="width:771px;height:401px;" version="1.1" viewBox="0 0 771 401" width="771px" zoomAndPan="magnify"><defs/><g><!--MD5=[a6f11bb19cee6b13000111f5ad685e8b]
cluster Dependencies--><path d="M147,306 L241,306 A4.5,4.5 0 0 1 244,309 L251,326.4844 L756,326.4844 A3,3 0 0 1 759,329.4844 L759,386 A3,3 0 0 1 756,389 L147,389 A3,3 0 0 1 144,386 L144,309 A3,3 0 0 1 147,306 " fill="#FFFFFF" style="stroke: #000000; stroke-width: 1.5;"/><line style="stroke: #000000; stroke-width: 1.5;" x1="144" x2="251" y1="326.4844" y2="326.4844"/><text fill="#000000" font-family="Tahoma, sans-serif" font-size="12" font-weight="bold" lengthAdjust="spacingAndGlyphs" textLength="94" x="148" y="320.0059">Dependencies</text><!--MD5=[a71e3188fc52cc8401259d95822f0449]
entity nanomatch--><rect fill="#F8F8F8" height="34.4844" rx="3" ry="3" style="stroke: #383838; stroke-width: 1.0;" width="85" x="372.5" y="339"/><rect fill="#F8F8F8" height="5" style="stroke: #383838; stroke-width: 1.0;" width="10" x="367.5" y="344"/><rect fill="#F8F8F8" height="5" style="stroke: #383838; stroke-width: 1.0;" width="10" x="367.5" y="363.4844"/><text fill="#000000" font-family="Tahoma, sans-serif" font-size="12" lengthAdjust="spacingAndGlyphs" textLength="65" x="382.5" y="361.0059">nanomatch</text><!--MD5=[c0cd64a1b408ece1273c15cbb42ecb48]
entity pino--><rect fill="#F8F8F8" height="34.4844" rx="3" ry="3" style="stroke: #383838; stroke-width: 1.0;" width="45" x="312.5" y="339"/><rect fill="#F8F8F8" height="5" style="stroke: #383838; stroke-width: 1.0;" width="10" x="307.5" y="344"/><rect fill="#F8F8F8" height="5" style="stroke: #383838; stroke-width: 1.0;" width="10" x="307.5" y="363.4844"/><text fill="#000000" font-family="Tahoma, sans-serif" font-size="12" lengthAdjust="spacingAndGlyphs" textLength="25" x="322.5" y="361.0059">pino</text><!--MD5=[63a986ea2eddc5539a0918540cb05aed]
entity progress--><rect fill="#F8F8F8" height="34.4844" rx="3" ry="3" style="stroke: #383838; stroke-width: 1.0;" width="71" x="160.5" y="339"/><rect fill="#F8F8F8" height="5" style="stroke: #383838; stroke-width: 1.0;" width="10" x="155.5" y="344"/><rect fill="#F8F8F8" height="5" style="stroke: #383838; stroke-width: 1.0;" width="10" x="155.5" y="363.4844"/><text fill="#000000" font-family="Tahoma, sans-serif" font-size="12" lengthAdjust="spacingAndGlyphs" textLength="51" x="170.5" y="361.0059">progress</text><!--MD5=[d76b2dd879d6a5e1d9735431d93b83eb]
entity resolve--><rect fill="#F8F8F8" height="34.4844" rx="3" ry="3" style="stroke: #383838; stroke-width: 1.0;" width="62" x="473" y="339"/><rect fill="#F8F8F8" height="5" style="stroke: #383838; stroke-width: 1.0;" width="10" x="468" y="344"/><rect fill="#F8F8F8" height="5" style="stroke: #383838; stroke-width: 1.0;" width="10" x="468" y="363.4844"/><text fill="#000000" font-family="Tahoma, sans-serif" font-size="12" lengthAdjust="spacingAndGlyphs" textLength="42" x="483" y="361.0059">resolve</text><!--MD5=[8ffd63cd11e23cfee4a642a984dbf6af]
entity ts-morph--><rect fill="#F8F8F8" height="34.4844" rx="3" ry="3" style="stroke: #383838; stroke-width: 1.0;" width="73" x="550.5" y="339"/><rect fill="#F8F8F8" height="5" style="stroke: #383838; stroke-width: 1.0;" width="10" x="545.5" y="344"/><rect fill="#F8F8F8" height="5" style="stroke: #383838; stroke-width: 1.0;" width="10" x="545.5" y="363.4844"/><text fill="#000000" font-family="Tahoma, sans-serif" font-size="12" lengthAdjust="spacingAndGlyphs" textLength="53" x="560.5" y="361.0059">ts-morph</text><!--MD5=[5da68f6e6052c57b10c9d31d160c217f]
entity tsconfig-paths--><rect fill="#F8F8F8" height="34.4844" rx="3" ry="3" style="stroke: #383838; stroke-width: 1.0;" width="104" x="639" y="339"/><rect fill="#F8F8F8" height="5" style="stroke: #383838; stroke-width: 1.0;" width="10" x="634" y="344"/><rect fill="#F8F8F8" height="5" style="stroke: #383838; stroke-width: 1.0;" width="10" x="634" y="363.4844"/><text fill="#000000" font-family="Tahoma, sans-serif" font-size="12" lengthAdjust="spacingAndGlyphs" textLength="84" x="649" y="361.0059">tsconfig-paths</text><!--MD5=[3422ac39ab4b1519bcf537fd476080e9]
entity yargs--><rect fill="#F8F8F8" height="34.4844" rx="3" ry="3" style="stroke: #383838; stroke-width: 1.0;" width="51" x="246.5" y="339"/><rect fill="#F8F8F8" height="5" style="stroke: #383838; stroke-width: 1.0;" width="10" x="241.5" y="344"/><rect fill="#F8F8F8" height="5" style="stroke: #383838; stroke-width: 1.0;" width="10" x="241.5" y="363.4844"/><text fill="#000000" font-family="Tahoma, sans-serif" font-size="12" lengthAdjust="spacingAndGlyphs" textLength="31" x="256.5" y="361.0059">yargs</text><ellipse cx="333.2487" cy="273.242" fill="#F8F8F8" rx="27.7487" ry="13.242" style="stroke: #383838; stroke-width: 0.5;"/><text fill="#000000" font-family="Tahoma, sans-serif" font-size="12" font-weight="bold" lengthAdjust="spacingAndGlyphs" textLength="35" x="315.7487" y="276.9842">index</text><ellipse cx="182.0061" cy="25.242" fill="#F8F8F8" rx="23.5061" ry="13.242" style="stroke: #383838; stroke-width: 0.5;"/><text fill="#000000" font-family="Tahoma, sans-serif" font-size="12" font-weight="bold" lengthAdjust="spacingAndGlyphs" textLength="29" x="167.5061" y="28.9842">arkit</text><ellipse cx="49.1446" cy="208.9157" fill="#F8F8F8" rx="14.1446" ry="11.9157" style="stroke: #383838; stroke-width: 0.5;"/><text fill="#000000" font-family="Tahoma, sans-serif" font-size="12" lengthAdjust="spacingAndGlyphs" textLength="13" x="42.6446" y="212.6579">cli</text><!--MD5=[9b175bf41d9031fc73b2d23114484617]
entity _config--><rect fill="#F8F8F8" height="34.4844" rx="3" ry="3" style="stroke: #000000; stroke-width: 0.5;" width="56" x="154" y="72"/><text fill="#000000" font-family="Tahoma, sans-serif" font-size="12" lengthAdjust="spacingAndGlyphs" textLength="36" x="164" y="94.0059">config</text><!--MD5=[596069b5d1c03d992244e8df7b78e7fa]
entity _converter--><rect fill="#F8F8F8" height="34.4844" rx="3" ry="3" style="stroke: #000000; stroke-width: 0.5;" width="74" x="347" y="72"/><text fill="#000000" font-family="Tahoma, sans-serif" font-size="12" lengthAdjust="spacingAndGlyphs" textLength="54" x="357" y="94.0059">converter</text><!--MD5=[87e5f189758f188e992f835c2ae5b802]
entity _filesystem--><rect fill="#F8F8F8" height="34.4844" rx="3" ry="3" style="stroke: #000000; stroke-width: 0.5;" width="79" x="498.5" y="72"/><text fill="#000000" font-family="Tahoma, sans-serif" font-size="12" lengthAdjust="spacingAndGlyphs" textLength="59" x="508.5" y="94.0059">filesystem</text><!--MD5=[bfa94df0d4ceea2318174c906ec62bd3]
entity _generator--><rect fill="#F8F8F8" height="34.4844" rx="3" ry="3" style="stroke: #000000; stroke-width: 0.5;" width="75" x="225.5" y="72"/><text fill="#000000" font-family="Tahoma, sans-serif" font-size="12" lengthAdjust="spacingAndGlyphs" textLength="55" x="235.5" y="94.0059">generator</text><ellipse cx="362.9558" cy="209.242" fill="#F8F8F8" rx="28.4558" ry="13.242" style="stroke: #383838; stroke-width: 0.5;"/><text fill="#000000" font-family="Tahoma, sans-serif" font-size="12" lengthAdjust="spacingAndGlyphs" textLength="36" x="344.9558" y="212.9842">logger</text><!--MD5=[a33901bb4370b10c1cb4e380a1b2276e]
entity _parser--><rect fill="#F8F8F8" height="34.4844" rx="3" ry="3" style="stroke: #000000; stroke-width: 0.5;" width="56" x="478" y="8"/><text fill="#000000" font-family="Tahoma, sans-serif" font-size="12" lengthAdjust="spacingAndGlyphs" textLength="36" x="488" y="30.0059">parser</text><!--MD5=[27f363bce3ef1a6c4c9472d222d45cf6]
entity _puml--><rect fill="#F8F8F8" height="34.4844" rx="3" ry="3" style="stroke: #000000; stroke-width: 0.5;" width="48" x="91" y="72"/><text fill="#000000" font-family="Tahoma, sans-serif" font-size="12" lengthAdjust="spacingAndGlyphs" textLength="28" x="101" y="94.0059">puml</text><!--MD5=[48d5f9b8cc26619de48164ae0fd9e780]
entity _schema--><rect fill="#F8F8F8" height="34.4844" rx="3" ry="3" style="stroke: #000000; stroke-width: 0.5;" width="66" x="193" y="256"/><text fill="#000000" font-family="Tahoma, sans-serif" font-size="12" lengthAdjust="spacingAndGlyphs" textLength="46" x="203" y="278.0059">schema</text><!--MD5=[0190f419ef54fc162964943b68b4f170]
entity _types--><rect fill="#F8F8F8" height="34.4844" rx="3" ry="3" style="stroke: #000000; stroke-width: 0.5;" width="51" x="237.5" y="192"/><text fill="#000000" font-family="Tahoma, sans-serif" font-size="12" lengthAdjust="spacingAndGlyphs" textLength="31" x="247.5" y="214.0059">types</text><ellipse cx="402.9706" cy="149.242" fill="#F8F8F8" rx="19.9706" ry="13.242" style="stroke: #383838; stroke-width: 0.5;"/><text fill="#000000" font-family="Tahoma, sans-serif" font-size="12" lengthAdjust="spacingAndGlyphs" textLength="24" x="390.9706" y="152.9842">utils</text><!--MD5=[5d007d3b1824d14964ea8f19f3e5cec4]
link <b>arkit</b> to utils--><path d="M205.644,26.736 C261.65,29.027 399.828,38.071 428,72 C442.806,89.831 427.69,116.705 415.368,133.259 " fill="none" id="&lt;b&gt;arkit&lt;/b&gt;-&gt;utils" style="stroke: #000000; stroke-width: 1.0;"/><polygon fill="#000000" points="412.315,137.233,420.9693,132.5316,415.3605,133.2675,414.6246,127.6588,412.315,137.233" style="stroke: #000000; stroke-width: 1.0;"/><!--MD5=[3ef4cd0402f24cf9e1de39667c3ecb3f]
link <b>arkit</b> to _config--><path d="M182,38.249 C182,46.348 182,57.183 182,66.673 " fill="none" id="&lt;b&gt;arkit&lt;/b&gt;-&gt;_config" style="stroke: #000000; stroke-width: 1.0;"/><polygon fill="#000000" points="182,71.781,186,62.781,182,66.781,178,62.781,182,71.781" style="stroke: #000000; stroke-width: 1.0;"/><!--MD5=[38738d36366e95da585b7000f564045b]
link <b>arkit</b> to _parser--><path d="M205.73,25 C294.754,25 383.777,25 472.801,25 " fill="none" id="&lt;b&gt;arkit&lt;/b&gt;-&gt;_parser" style="stroke: #000000; stroke-width: 1.0;"/><polygon fill="#000000" points="477.85,25,468.85,21,472.85,25,468.85,29,477.85,25" style="stroke: #000000; stroke-width: 1.0;"/><!--MD5=[8097374f7142548b7a890ead09ee56fe]
link <b>arkit</b> to _generator--><path d="M195.014,35.961 C206.443,44.709 223.401,57.69 237.521,68.497 " fill="none" id="&lt;b&gt;arkit&lt;/b&gt;-&gt;_generator" style="stroke: #000000; stroke-width: 1.0;"/><polygon fill="#000000" points="241.803,71.775,237.0892,63.1274,237.8332,68.7352,232.2255,69.4791,241.803,71.775" style="stroke: #000000; stroke-width: 1.0;"/><!--MD5=[4191f6fd6e40dd5b341ae5ab34913be2]
link <b>arkit</b> to _types--><path d="M159.741,29.312 C136.085,34.149 99.82,45.638 83,72 C74.8721,84.739 75.6614,92.791 83,106 C114.178,162.12 189.562,189.597 232.227,201.071 " fill="none" id="&lt;b&gt;arkit&lt;/b&gt;-&gt;_types" style="stroke: #000000; stroke-width: 1.0;"/><polygon fill="#000000" points="237.263,202.391,229.5726,196.2382,232.4266,201.1223,227.5426,203.9764,237.263,202.391" style="stroke: #000000; stroke-width: 1.0;"/><!--MD5=[4973c389aa2c377c15e818329c82b098]
link <b>arkit</b> to cli--><path d="M159.419,29.357 C134.772,34.26 96.0232,45.834 75,72 C46.7697,107.137 45.9449,163.76 47.5247,191.546 " fill="none" id="&lt;b&gt;arkit&lt;/b&gt;-&gt;cli" style="stroke: #000000; stroke-width: 1.0;"/><polygon fill="#000000" points="47.8653,196.704,51.2652,187.4606,47.5367,191.7148,43.2825,187.9863,47.8653,196.704" style="stroke: #000000; stroke-width: 1.0;"/><!--MD5=[a6c99bc27f8a5df501f6deb953cc1206]
link <b>arkit</b> to progress--><path d="M160.419,30.285 C113.422,41.006 6,73.643 6,148 C6,148 6,148 6,210 C6,284.516 99.4953,325.84 155.315,343.8715 " fill="none" id="&lt;b&gt;arkit&lt;/b&gt;-&gt;progress" style="stroke: #000000; stroke-width: 1.0;"/><polygon fill="#000000" points="160.262,345.4408,152.894,338.9053,155.4963,343.928,150.4736,346.5304,160.262,345.4408" style="stroke: #000000; stroke-width: 1.0;"/><!--MD5=[5fd153b349494263d8e7f4f2216a3c65]
link <b>arkit</b> to _puml--><path d="M170.634,36.517 C161.242,45.209 147.649,57.788 136.25,68.336 " fill="none" id="&lt;b&gt;arkit&lt;/b&gt;-&gt;_puml" style="stroke: #000000; stroke-width: 1.0;"/><polygon fill="#000000" points="132.478,71.827,141.8006,68.6507,136.148,68.4313,136.3674,62.7787,132.478,71.827" style="stroke: #000000; stroke-width: 1.0;"/><!--MD5=[7e72266f040ccf1607d790f530e45289]
link <b>arkit</b> to _converter--><path d="M201.736,32.058 C234.046,41.974 298.926,61.888 341.913,75.082 " fill="none" id="&lt;b&gt;arkit&lt;/b&gt;-&gt;_converter" style="stroke: #000000; stroke-width: 1.0;"/><polygon fill="#000000" points="346.783,76.577,339.3528,70.1123,342.0031,75.1099,337.0055,77.7601,346.783,76.577" style="stroke: #000000; stroke-width: 1.0;"/><!--MD5=[a56170b3d48935c4d3b22f4ab35cf5f6]
link cli to yargs--><path d="M58.9038,217.678 C80.4692,233.961 133.856,271.943 185,290 C207.878,298.077 218.928,284.37 239,298 C251.61,306.5632 260.036,321.6639 265.215,334.1718 " fill="none" id="cli-&gt;yargs" style="stroke: #000000; stroke-width: 0.5;"/><polygon fill="#000000" points="267.108,338.9944,267.5423,329.1551,265.2808,334.3402,260.0956,332.0787,267.108,338.9944" style="stroke: #000000; stroke-width: 0.5;"/><!--MD5=[18c9d18ff7c5b344df0fa5f9cb40db42]
link _config to _types--><path d="M193.263,106.407 C207.831,127.631 233.207,164.598 249,187.605 " fill="none" id="_config-&gt;_types" style="stroke: #000000; stroke-width: 0.5;"/><polygon fill="#000000" points="251.833,191.732,250.0375,182.0482,249.0034,187.6097,243.4419,186.5756,251.833,191.732" style="stroke: #000000; stroke-width: 0.5;"/><!--MD5=[351f68a5f896d67f539cead901abd720]
link _config to utils--><path d="M210.093,103.108 C212.74,104.154 215.404,105.138 218,106 C274.304,124.705 342.973,137.882 378.726,144.049 " fill="none" id="_config-&gt;utils" style="stroke: #000000; stroke-width: 0.5;"/><polygon fill="#000000" points="383.756,144.908,375.5575,139.4504,378.8273,144.0666,374.2112,147.3363,383.756,144.908" style="stroke: #000000; stroke-width: 0.5;"/><!--MD5=[fc162100910514425fff6944e35fc2d8]
link _converter to _types--><path d="M367.175,106.407 C345.232,127.807 306.875,165.213 283.329,188.175 " fill="none" id="_converter-&gt;_types" style="stroke: #000000; stroke-width: 0.5;"/><polygon fill="#000000" points="279.682,191.732,288.9179,188.3119,283.2615,188.241,283.3324,182.5846,279.682,191.732" style="stroke: #000000; stroke-width: 0.5;"/><!--MD5=[c9657907db6ff79fce239197463be672]
link _converter to logger--><path d="M380.724,106.158 C378.966,114.968 376.798,126.071 375,136 C371.621,154.658 368.092,176.101 365.744,190.701 " fill="none" id="_converter-&gt;logger" style="stroke: #000000; stroke-width: 0.5;"/><polygon fill="#000000" points="364.934,195.752,370.3081,187.4986,365.7254,190.815,362.4089,186.2323,364.934,195.752" style="stroke: #000000; stroke-width: 0.5;"/><!--MD5=[61d1a339dcb5d9c1f41aeaef7d739cc0]
link _converter to utils--><path d="M389.293,106.156 C391.826,113.891 394.86,123.153 397.429,130.994 " fill="none" id="_converter-&gt;utils" style="stroke: #000000; stroke-width: 0.5;"/><polygon fill="#000000" points="399.121,136.16,400.1219,126.3621,397.5652,131.4082,392.5191,128.8515,399.121,136.16" style="stroke: #000000; stroke-width: 0.5;"/><!--MD5=[63d7708099e3394480946b991f7f0f8a]
link _filesystem to tsconfig-paths--><path d="M547.341,106.178 C573.855,152.101 649.566,283.236 679.047,334.2971 " fill="none" id="_filesystem-&gt;tsconfig-paths" style="stroke: #000000; stroke-width: 0.5;"/><polygon fill="#000000" points="681.587,338.697,680.5507,328.9028,679.0868,334.367,673.6227,332.9031,681.587,338.697" style="stroke: #000000; stroke-width: 0.5;"/><!--MD5=[0ed876bbe3cff773d614e1e8d04ba7d9]
link _filesystem to logger--><path d="M522.331,106.295 C506.756,121.894 481.688,145.439 457,162 C435.162,176.649 407.971,189.438 388.46,197.787 " fill="none" id="_filesystem-&gt;logger" style="stroke: #000000; stroke-width: 0.5;"/><polygon fill="#000000" points="383.673,199.812,393.5203,199.988,388.2776,197.8633,390.4023,192.6206,383.673,199.812" style="stroke: #000000; stroke-width: 0.5;"/><!--MD5=[98819f9f4add06b3b80a5ab485f70b86]
link _filesystem to ts-morph--><path d="M540.991,106.178 C549.449,151.917 573.535,282.182 583.057,333.6768 " fill="none" id="_filesystem-&gt;ts-morph" style="stroke: #000000; stroke-width: 0.5;"/><polygon fill="#000000" points="583.985,338.697,586.2818,329.1197,583.0758,333.7804,578.4151,330.5744,583.985,338.697" style="stroke: #000000; stroke-width: 0.5;"/><!--MD5=[24e3fd6873b45d5741aef9beafd9834e]
link _filesystem to _schema--><path d="M528.062,106.224 C518.227,121.558 502.186,144.724 485,162 C451.398,195.778 442.208,205.922 399,226 C346.011,250.623 327.058,239.52 271,256 C268.733,256.666 266.413,257.383 264.08,258.13 " fill="none" id="_filesystem-&gt;_schema" style="stroke: #000000; stroke-width: 0.5;"/><polygon fill="#000000" points="259.285,259.7,269.0829,260.7009,264.0368,258.1442,266.5935,253.0981,259.285,259.7" style="stroke: #000000; stroke-width: 0.5;"/><!--MD5=[f8d8a2b83cdbee1bf0f4ba02f327bf22]
link _filesystem to utils--><path d="M500.753,106.002 C475.898,116.681 444.143,130.324 423.688,139.112 " fill="none" id="_filesystem-&gt;utils" style="stroke: #000000; stroke-width: 0.5;"/><polygon fill="#000000" points="418.996,141.128,428.8441,141.2523,423.5903,139.1551,425.6875,133.9014,418.996,141.128" style="stroke: #000000; stroke-width: 0.5;"/><!--MD5=[29fc7cb263c8a986e59895fafbf2618c]
link _filesystem to _types--><path d="M506.202,106.122 C491.097,114.315 473.09,124.879 458,136 C444.329,146.075 444.833,153.731 430,162 C418.05,168.662 338.695,189.099 293.809,200.359 " fill="none" id="_filesystem-&gt;_types" style="stroke: #000000; stroke-width: 0.5;"/><polygon fill="#000000" points="288.779,201.619,298.481,203.3134,293.6293,200.4046,296.538,195.5529,288.779,201.619" style="stroke: #000000; stroke-width: 0.5;"/><!--MD5=[a3cb2900d233dd20d6fe2b1cf7508165]
link _filesystem to resolve--><path d="M535.924,106.178 C530.056,151.917 513.343,282.182 506.736,333.6768 " fill="none" id="_filesystem-&gt;resolve" style="stroke: #000000; stroke-width: 0.5;"/><polygon fill="#000000" points="506.092,338.697,511.2049,330.2793,506.7283,333.7377,503.2699,329.2611,506.092,338.697" style="stroke: #000000; stroke-width: 0.5;"/><!--MD5=[b9fac3aebaefdaeea982719c5caf3df9]
link _generator to utils--><path d="M300.517,105.543 C326.571,116.337 360.339,130.326 381.845,139.236 " fill="none" id="_generator-&gt;utils" style="stroke: #000000; stroke-width: 0.5;"/><polygon fill="#000000" points="386.505,141.166,379.7205,134.0266,381.8855,139.2528,376.6594,141.4178,386.505,141.166" style="stroke: #000000; stroke-width: 0.5;"/><!--MD5=[c454013af6cb5178a340d0b9287c02c6]
link _generator to _types--><path d="M263,106.407 C263,127.278 263,163.376 263,186.448 " fill="none" id="_generator-&gt;_types" style="stroke: #000000; stroke-width: 0.5;"/><polygon fill="#000000" points="263,191.732,267,182.732,263,186.732,259,182.732,263,191.732" style="stroke: #000000; stroke-width: 0.5;"/><!--MD5=[da4bbf343560df7839df82a1a3559676]
link <b>index</b> to yargs--><path d="M319.039,284.39 C314.26,288.337 309.093,293.076 305,298 C295.854,309.0029 287.765,322.8671 281.885,334.167 " fill="none" id="&lt;b&gt;index&lt;/b&gt;-&gt;yargs" style="stroke: #000000; stroke-width: 1.0;"/><polygon fill="#000000" points="279.503,338.837,287.1552,332.6366,281.7745,334.3828,280.0284,329.0022,279.503,338.837" style="stroke: #000000; stroke-width: 1.0;"/><!--MD5=[468e2e1e074ba5023716eba1760428d1]
link logger to pino--><path d="M365.945,222.117 C369.3,237.956 373.635,266.451 368,290 C366.876,294.697 355.359,316.9036 346.243,334.0682 " fill="none" id="logger-&gt;pino" style="stroke: #000000; stroke-width: 0.5;"/><polygon fill="#000000" points="343.746,338.7571,351.5071,332.6936,346.0963,334.3439,344.446,328.9332,343.746,338.7571" style="stroke: #000000; stroke-width: 0.5;"/><!--MD5=[eaee9194cde86e4dba5cce260119b667]
link _parser to ts-morph--><path d="M534.068,33.743 C579.227,48.106 663,83.45 663,148 C663,148 663,148 663,210 C663,236.521 622.612,301.431 600.72,334.6665 " fill="none" id="_parser-&gt;ts-morph" style="stroke: #000000; stroke-width: 0.5;"/><polygon fill="#000000" points="597.889,338.9452,606.1914,333.6471,600.6482,334.7755,599.5199,329.2323,597.889,338.9452" style="stroke: #000000; stroke-width: 0.5;"/><!--MD5=[a75add013ca82fc82481878bfd4e3641]
link _parser to utils--><path d="M497.783,42.078 C488.677,59.024 472.893,85.984 455,106 C444.758,117.457 431.198,128.299 420.494,136.097 " fill="none" id="_parser-&gt;utils" style="stroke: #000000; stroke-width: 0.5;"/><polygon fill="#000000" points="416.396,139.036,426.0406,137.0406,420.4589,136.1217,421.3777,130.54,416.396,139.036" style="stroke: #000000; stroke-width: 0.5;"/><!--MD5=[5f92b096f1964618f4d35e1885e72196]
link _parser to _types--><path d="M477.94,27.222 C442.171,30.12 380.059,39.804 339,72 C319.119,87.589 287.783,152.849 272.297,186.984 " fill="none" id="_parser-&gt;_types" style="stroke: #000000; stroke-width: 0.5;"/><polygon fill="#000000" points="270.13,191.785,277.4787,185.2278,272.1872,187.2278,270.1871,181.9363,270.13,191.785" style="stroke: #000000; stroke-width: 0.5;"/><!--MD5=[2a0eb8f5257b765efc105a9918f3a3f4]
link _parser to progress--><path d="M534.316,34.359 C552.3,41.301 574.163,53.15 585,72 C592.531,85.101 591.479,92.348 585,106 C548.842,182.194 514.02,189.479 438,226 C380.641,253.556 353.431,224.747 298,256 C279.924,266.192 283.671,279.12 266,290 C255.342,296.562 249.285,290.868 239,298 C225.482,307.3732 214.424,322.3452 206.908,334.5929 " fill="none" id="_parser-&gt;progress" style="stroke: #000000; stroke-width: 0.5;"/><polygon fill="#000000" points="204.302,338.9665,212.3453,333.2828,206.8615,334.6713,205.473,329.1875,204.302,338.9665" style="stroke: #000000; stroke-width: 0.5;"/><!--MD5=[f1e53fc1dea015a30eab6e1e446d89a6]
link _parser to _filesystem--><path d="M514.408,42.29 C518.272,49.777 522.906,58.755 527.039,66.764 " fill="none" id="_parser-&gt;_filesystem" style="stroke: #000000; stroke-width: 0.5;"/><polygon fill="#000000" points="529.537,71.604,528.9641,61.7718,527.244,67.1608,521.855,65.4407,529.537,71.604" style="stroke: #000000; stroke-width: 0.5;"/><!--MD5=[0b11a76e76c7e435b874dbc72abb77e2]
link _puml to _schema--><path d="M124.851,106.151 C145.01,139.205 190.95,214.53 213.307,251.188 " fill="none" id="_puml-&gt;_schema" style="stroke: #000000; stroke-width: 0.5;"/><polygon fill="#000000" points="216.172,255.885,214.9016,246.1184,213.5689,251.6161,208.0713,250.2834,216.172,255.885" style="stroke: #000000; stroke-width: 0.5;"/><!--MD5=[1cd7a194fad6e583d98284dd9e7ad5ce]
link _puml to _types--><path d="M135.268,106.16 C162.131,127.577 209.488,165.335 238.378,188.369 " fill="none" id="_puml-&gt;_types" style="stroke: #000000; stroke-width: 0.5;"/><polygon fill="#000000" points="242.501,191.657,237.9571,182.919,238.5914,188.5401,232.9702,189.1744,242.501,191.657" style="stroke: #000000; stroke-width: 0.5;"/><!--MD5=[33d3eea4709a8b567280e9efd5c81c20]
link _puml to utils--><path d="M139.053,103.326 C141.362,104.326 143.7,105.24 146,106 C228.252,133.187 331.357,143.206 378.017,146.525 " fill="none" id="_puml-&gt;utils" style="stroke: #000000; stroke-width: 0.5;"/><polygon fill="#000000" points="383.155,146.88,374.4518,142.2698,378.1669,146.5357,373.901,150.2508,383.155,146.88" style="stroke: #000000; stroke-width: 0.5;"/><!--MD5=[c9602602a4a319a2655ab3a7f1f5377e]
link _types to _schema--><path d="M253.279,226.29 C248.726,233.918 243.25,243.094 238.403,251.216 " fill="none" id="_types-&gt;_schema" style="stroke: #000000; stroke-width: 0.5;"/><polygon fill="#000000" points="235.785,255.604,243.8321,249.9256,238.3474,251.3105,236.9625,245.8258,235.785,255.604" style="stroke: #000000; stroke-width: 0.5;"/><!--MD5=[73cb47c51127de574fdb5397cdc244a0]
link utils to logger--><path d="M395.288,161.183 C389.224,169.975 380.7,182.335 373.933,192.147 " fill="none" id="utils-&gt;logger" style="stroke: #000000; stroke-width: 0.5;"/><polygon fill="#000000" points="370.963,196.454,379.3656,191.3162,373.8018,192.338,372.78,186.7742,370.963,196.454" style="stroke: #000000; stroke-width: 0.5;"/><!--MD5=[d38b201016fba965bf2b066d18cd9a0b]
link utils to nanomatch--><path d="M403.715,162.21 C405.689,195.936 411.236,290.703 413.743,333.5211 " fill="none" id="utils-&gt;nanomatch" style="stroke: #000000; stroke-width: 0.5;"/><polygon fill="#000000" points="414.047,338.7212,417.514,329.5028,413.7547,333.7298,409.5277,329.9704,414.047,338.7212" style="stroke: #000000; stroke-width: 0.5;"/><!--MD5=[e5765284aad8fb6834ca7645c6428beb]
link utils to _types--><path d="M386.666,156.767 C363.892,166.202 322.179,183.483 293.545,195.346 " fill="none" id="utils-&gt;_types" style="stroke: #000000; stroke-width: 0.5;"/><polygon fill="#000000" points="288.713,197.348,298.5587,197.5982,293.3322,195.4341,295.4964,190.2076,288.713,197.348" style="stroke: #000000; stroke-width: 0.5;"/><!--MD5=[f8e0fe0ac68fce3f86c399a94539086c]
link utils to ts-morph--><path d="M413.438,160.48 C437.029,184.301 495.983,244.589 542,298 C552.171,309.8055 563.01,323.4977 571.501,334.5031 " fill="none" id="utils-&gt;ts-morph" style="stroke: #000000; stroke-width: 0.5;"/><polygon fill="#000000" points="574.752,338.7331,572.4411,329.1592,571.7059,334.7681,566.0971,334.0329,574.752,338.7331" style="stroke: #000000; stroke-width: 0.5;"/><script type="text/plantuml"><![CDATA[MD5=[961c5fa9300e05bb194bc70f9b4a8cd2]
@startuml

scale max 1920 width
top to bottom direction

skinparam nodesep 15
skinparam ranksep 30
skinparam monochrome true
skinparam shadowing false
skinparam defaultFontName Tahoma
skinparam defaultFontSize 12
skinparam roundCorner 6
skinparam dpi 150
skinparam arrowColor black
skinparam arrowThickness 0.5
skinparam packageTitleAlignment left

skinparam usecase {
  borderThickness 0.5
}

skinparam rectangle {
  borderThickness 0.5
}

skinparam component {
  borderThickness 1
}


(<b>index</b>)
(<b>arkit</b>)
(cli)
rectangle "config" as _config
rectangle "converter" as _converter
rectangle "filesystem" as _filesystem
rectangle "generator" as _generator
(logger)
rectangle "parser" as _parser
rectangle "puml" as _puml
rectangle "schema" as _schema
rectangle "types" as _types
(utils)

package "Dependencies" {
  [nanomatch]
  [pino]
  [progress]
  [resolve]
  [ts-morph]
  [tsconfig-paths]
  [yargs]
}

(<b>arkit</b>) -[thickness=1]> (utils)
(<b>arkit</b>) -[thickness=1]> _config
(<b>arkit</b>) -[thickness=1]> _parser
(<b>arkit</b>) -[thickness=1]> _generator
(<b>arkit</b>) -[thickness=1]> _types
(<b>arkit</b>) -[thickness=1]> (cli)
(<b>arkit</b>) ---[thickness=1]> [progress]
(<b>arkit</b>) -[thickness=1]> _puml
(<b>arkit</b>) -[thickness=1]> _converter
(cli) ---> [yargs]
_config --> _types
_config --> (utils)
_converter --> _types
_converter --> (logger)
_converter --> (utils)
_filesystem ---> [tsconfig-paths]
_filesystem --> (logger)
_filesystem ---> [ts-morph]
_filesystem --> _schema
_filesystem --> (utils)
_filesystem --> _types
_filesystem ---> [resolve]
_generator --> (utils)
_generator --> _types
(<b>index</b>) --[thickness=1]> [yargs]
(logger) ---> [pino]
_parser ---> [ts-morph]
_parser --> (utils)
_parser --> _types
_parser ---> [progress]
_parser --> _filesystem
_puml --> _schema
_puml --> _types
_puml --> (utils)
_types --> _schema
(utils) --> (logger)
(utils) ---> [nanomatch]
(utils) --> _types
(utils) ---> [ts-morph]

@enduml


' View and edit on https://arkit.pro
]]></script></g></svg>